<?xml version="1.0" encoding="utf-8"?>
<!-- Generator: Adobe Illustrator 24.3.0, SVG Export Plug-In . SVG Version: 6.00 Build 0)  -->
<svg version="1.1" id="Layer_1" xmlns="http://www.w3.org/2000/svg" xmlns:xlink="http://www.w3.org/1999/xlink" x="0px" y="0px"
	 viewBox="0 0 50 30" style="enable-background:new 0 0 50 30;" xml:space="preserve">
<style type="text/css">
	.st0{fill:#FFFFFF;}
	.st1{fill-rule:evenodd;clip-rule:evenodd;fill:#FF9900;}
</style>
<path class="st0" d="M14.1,10.9c0,0.5,0,1,0.2,1.5c0.1,0.4,0.3,0.8,0.5,1.2c0.1,0.1,0.1,0.2,0.1,0.4c0,0.2-0.1,0.4-0.3,0.5l-1,0.7
	c-0.1,0.1-0.3,0.1-0.4,0.1c-0.2,0-0.4-0.1-0.5-0.2c-0.2-0.2-0.4-0.5-0.6-0.8c-0.2-0.3-0.3-0.6-0.5-1c-1.2,1.5-3,2.3-4.9,2.3
	c-1.2,0.1-2.4-0.4-3.3-1.2c-0.8-0.8-1.3-2-1.2-3.2c0-1.3,0.5-2.6,1.5-3.4c1.2-0.9,2.6-1.4,4.1-1.3c0.6,0,1.2,0,1.8,0.1
	c0.6,0.1,1.2,0.2,1.9,0.4V5.7c0.1-1-0.2-1.9-0.8-2.7C9.8,2.5,8.8,2.2,7.9,2.3c-0.6,0-1.2,0.1-1.8,0.2C5.5,2.7,4.9,2.9,4.3,3.1
	C4.1,3.2,3.9,3.2,3.7,3.3c-0.1,0-0.2,0-0.3,0c-0.2,0-0.3-0.2-0.3-0.5V2c0-0.2,0-0.4,0.1-0.6c0.1-0.2,0.3-0.3,0.5-0.3
	C4.3,0.8,5,0.5,5.8,0.3C6.6,0.1,7.5,0,8.4,0c1.6-0.1,3.1,0.4,4.3,1.4c1,1.1,1.5,2.6,1.4,4.1L14.1,10.9z M7.3,13.4
	c0.6,0,1.2-0.1,1.7-0.3c0.6-0.2,1.2-0.6,1.6-1.1c0.3-0.3,0.5-0.7,0.6-1.1c0.1-0.5,0.2-1,0.2-1.4V8.8c-0.5-0.1-1-0.2-1.5-0.3
	c-0.5-0.1-1-0.1-1.6-0.1C7.4,8.4,6.5,8.6,5.8,9.1C5.2,9.6,4.9,10.3,5,11c0,0.6,0.2,1.3,0.6,1.8C6.1,13.2,6.7,13.4,7.3,13.4z
	 M20.7,15.2c-0.2,0-0.4,0-0.6-0.2c-0.2-0.2-0.3-0.4-0.3-0.7L15.8,1.5c-0.1-0.2-0.1-0.4-0.1-0.7c0-0.2,0.1-0.4,0.3-0.4
	c0,0,0.1,0,0.1,0h1.6c0.2,0,0.5,0,0.7,0.2c0.2,0.2,0.3,0.4,0.3,0.7l2.8,11l2.6-11c0-0.2,0.1-0.5,0.3-0.7c0.2-0.1,0.4-0.2,0.7-0.2
	h1.3c0.2,0,0.5,0,0.7,0.2c0.2,0.2,0.3,0.4,0.3,0.7L30,12.4l2.9-11.1c0.1-0.2,0.2-0.5,0.3-0.7c0.2-0.1,0.4-0.2,0.7-0.2h1.5
	c0.2,0,0.4,0.1,0.4,0.3c0,0,0,0.1,0,0.1c0,0.1,0,0.2,0,0.3c0,0.1-0.1,0.3-0.1,0.4l-4,12.9c-0.1,0.2-0.2,0.5-0.3,0.7
	c-0.2,0.1-0.4,0.2-0.6,0.2h-1.4c-0.2,0-0.5,0-0.7-0.2c-0.2-0.2-0.3-0.4-0.3-0.7L25.7,3.6l-2.6,10.7c0,0.3-0.1,0.5-0.3,0.7
	c-0.2,0.1-0.4,0.2-0.7,0.2L20.7,15.2z M42.1,15.6c-0.9,0-1.7-0.1-2.6-0.3c-0.7-0.1-1.3-0.4-1.9-0.7c-0.4-0.1-0.6-0.5-0.6-0.9v-0.8
	c0-0.3,0.1-0.5,0.4-0.5c0.1,0,0.2,0,0.3,0.1c0.1,0,0.2,0.1,0.4,0.2c0.6,0.3,1.2,0.5,1.8,0.6c0.7,0.1,1.3,0.2,2,0.2
	c0.8,0,1.7-0.1,2.4-0.6c0.6-0.3,0.9-0.9,0.9-1.6c0-0.4-0.1-0.9-0.5-1.2c-0.5-0.4-1.1-0.7-1.7-0.9l-2.4-0.8c-1-0.3-2-0.9-2.7-1.7
	c-0.5-0.7-0.8-1.5-0.8-2.4c0-0.6,0.1-1.3,0.5-1.8c0.3-0.5,0.7-1,1.2-1.4c0.5-0.4,1.1-0.7,1.7-0.9C41.2,0.1,41.9,0,42.6,0
	c0.4,0,0.7,0,1.1,0.1c0.4,0,0.7,0.1,1.1,0.2c0.3,0.1,0.7,0.2,0.9,0.3c0.2,0.1,0.5,0.2,0.7,0.3c0.2,0.1,0.4,0.2,0.5,0.4
	c0.1,0.2,0.2,0.4,0.1,0.6v0.8c0,0.3-0.1,0.5-0.4,0.5c-0.2,0-0.4-0.1-0.6-0.2c-1-0.4-2.1-0.7-3.2-0.6c-0.8,0-1.5,0.1-2.2,0.5
	c-0.5,0.3-0.8,0.9-0.8,1.5c0,0.4,0.2,0.9,0.5,1.2c0.5,0.4,1.2,0.7,1.8,0.9L44.6,7c1,0.3,1.9,0.8,2.6,1.6c0.5,0.7,0.8,1.5,0.8,2.3
	c0,0.7-0.1,1.3-0.4,1.9c-0.3,0.6-0.7,1.1-1.2,1.5c-0.6,0.4-1.2,0.7-1.8,0.9C43.6,15.5,42.8,15.6,42.1,15.6L42.1,15.6z"/>
<path class="st1" d="M45.2,23.8C39.7,27.9,31.8,30,25,30C15.8,30,7,26.7,0.2,20.6c-0.5-0.5-0.1-1.1,0.6-0.7
	c7.5,4.3,16.1,6.6,24.7,6.6c6.5,0,12.9-1.3,18.9-3.9C45.3,22.1,46.1,23.1,45.2,23.8z"/>
<path class="st1" d="M47.5,21.2c-0.7-0.9-4.6-0.4-6.4-0.2c-0.5,0.1-0.6-0.4-0.1-0.7c3.1-2.2,8.3-1.6,8.9-0.8
	c0.6,0.7-0.2,5.9-3.1,8.3c-0.5,0.4-0.9,0.2-0.7-0.3C46.7,25.8,48.2,22.1,47.5,21.2z"/>
<path class="st0" d="M14.1,10.9c0,0.5,0,1,0.2,1.5c0.1,0.4,0.3,0.8,0.5,1.2c0.1,0.1,0.1,0.2,0.1,0.4c0,0.2-0.1,0.4-0.3,0.5l-1,0.7
	c-0.1,0.1-0.3,0.1-0.4,0.1c-0.2,0-0.4-0.1-0.5-0.2c-0.2-0.2-0.4-0.5-0.6-0.8c-0.2-0.3-0.3-0.6-0.5-1c-1.2,1.5-3,2.3-4.9,2.3
	c-1.2,0.1-2.4-0.4-3.3-1.2c-0.8-0.8-1.3-2-1.2-3.2c0-1.3,0.5-2.6,1.5-3.4c1.2-0.9,2.6-1.4,4.1-1.3c0.6,0,1.2,0,1.8,0.1
	c0.6,0.1,1.2,0.2,1.9,0.4V5.7c0.1-1-0.2-1.9-0.8-2.7C9.8,2.5,8.8,2.2,7.9,2.3c-0.6,0-1.2,0.1-1.8,0.2C5.5,2.7,4.9,2.9,4.3,3.1
	C4.1,3.2,3.9,3.2,3.7,3.3c-0.1,0-0.2,0-0.3,0c-0.2,0-0.3-0.2-0.3-0.5V2c0-0.2,0-0.4,0.1-0.6c0.1-0.2,0.3-0.3,0.5-0.3
	C4.3,0.8,5,0.5,5.8,0.3C6.6,0.1,7.5,0,8.4,0c1.6-0.1,3.1,0.4,4.3,1.4c1,1.1,1.5,2.6,1.4,4.1L14.1,10.9z M7.3,13.4
	c0.6,0,1.2-0.1,1.7-0.3c0.6-0.2,1.2-0.6,1.6-1.1c0.3-0.3,0.5-0.7,0.6-1.1c0.1-0.5,0.2-1,0.2-1.4V8.8c-0.5-0.1-1-0.2-1.5-0.3
	c-0.5-0.1-1-0.1-1.6-0.1C7.4,8.4,6.5,8.6,5.8,9.1C5.2,9.6,4.9,10.3,5,11c0,0.6,0.2,1.3,0.6,1.8C6.1,13.2,6.7,13.4,7.3,13.4z
	 M20.7,15.2c-0.2,0-0.4,0-0.6-0.2c-0.2-0.2-0.3-0.4-0.3-0.7L15.8,1.5c-0.1-0.2-0.1-0.4-0.1-0.7c0-0.2,0.1-0.4,0.3-0.4
	c0,0,0.1,0,0.1,0h1.6c0.2,0,0.5,0,0.7,0.2c0.2,0.2,0.3,0.4,0.3,0.7l2.8,11l2.6-11c0-0.2,0.1-0.5,0.3-0.7c0.2-0.1,0.4-0.2,0.7-0.2
	h1.3c0.2,0,0.5,0,0.7,0.2c0.2,0.2,0.3,0.4,0.3,0.7L30,12.4l2.9-11.1c0.1-0.2,0.2-0.5,0.3-0.7c0.2-0.1,0.4-0.2,0.7-0.2h1.5
	c0.2,0,0.4,0.1,0.4,0.3c0,0,0,0.1,0,0.1c0,0.1,0,0.2,0,0.3c0,0.1-0.1,0.3-0.1,0.4l-4,12.9c-0.1,0.2-0.2,0.5-0.3,0.7
	c-0.2,0.1-0.4,0.2-0.6,0.2h-1.4c-0.2,0-0.5,0-0.7-0.2c-0.2-0.2-0.3-0.4-0.3-0.7L25.7,3.6l-2.6,10.7c0,0.3-0.1,0.5-0.3,0.7
	c-0.2,0.1-0.4,0.2-0.7,0.2L20.7,15.2z M42.1,15.6c-0.9,0-1.7-0.1-2.6-0.3c-0.7-0.1-1.3-0.4-1.9-0.7c-0.4-0.1-0.6-0.5-0.6-0.9v-0.8
	c0-0.3,0.1-0.5,0.4-0.5c0.1,0,0.2,0,0.3,0.1c0.1,0,0.2,0.1,0.4,0.2c0.6,0.3,1.2,0.5,1.8,0.6c0.7,0.1,1.3,0.2,2,0.2
	c0.8,0,1.7-0.1,2.4-0.6c0.6-0.3,0.9-0.9,0.9-1.6c0-0.4-0.1-0.9-0.5-1.2c-0.5-0.4-1.1-0.7-1.7-0.9l-2.4-0.8c-1-0.3-2-0.9-2.7-1.7
	c-0.5-0.7-0.8-1.5-0.8-2.4c0-0.6,0.1-1.3,0.5-1.8c0.3-0.5,0.7-1,1.2-1.4c0.5-0.4,1.1-0.7,1.7-0.9C41.2,0.1,41.9,0,42.6,0
	c0.4,0,0.7,0,1.1,0.1c0.4,0,0.7,0.1,1.1,0.2c0.3,0.1,0.7,0.2,0.9,0.3c0.2,0.1,0.5,0.2,0.7,0.3c0.2,0.1,0.4,0.2,0.5,0.4
	c0.1,0.2,0.2,0.4,0.1,0.6v0.8c0,0.3-0.1,0.5-0.4,0.5c-0.2,0-0.4-0.1-0.6-0.2c-1-0.4-2.1-0.7-3.2-0.6c-0.8,0-1.5,0.1-2.2,0.5
	c-0.5,0.3-0.8,0.9-0.8,1.5c0,0.4,0.2,0.9,0.5,1.2c0.5,0.4,1.2,0.7,1.8,0.9L44.6,7c1,0.3,1.9,0.8,2.6,1.6c0.5,0.7,0.8,1.5,0.8,2.3
	c0,0.7-0.1,1.3-0.4,1.9c-0.3,0.6-0.7,1.1-1.2,1.5c-0.6,0.4-1.2,0.7-1.8,0.9C43.6,15.5,42.8,15.6,42.1,15.6L42.1,15.6z"/>
<path class="st1" d="M45.2,23.8C39.7,27.9,31.8,30,25,30C15.8,30,7,26.7,0.2,20.6c-0.5-0.5-0.1-1.1,0.6-0.7
	c7.5,4.3,16.1,6.6,24.7,6.6c6.5,0,12.9-1.3,18.9-3.9C45.3,22.1,46.1,23.1,45.2,23.8z"/>
<path class="st1" d="M47.5,21.2c-0.7-0.9-4.6-0.4-6.4-0.2c-0.5,0.1-0.6-0.4-0.1-0.7c3.1-2.2,8.3-1.6,8.9-0.8
	c0.6,0.7-0.2,5.9-3.1,8.3c-0.5,0.4-0.9,0.2-0.7-0.3C46.7,25.8,48.2,22.1,47.5,21.2z"/>
</svg>
